<?xml version="1.0" encoding="utf-8"?>
<!-- Uploaded to: SVG Repo, www.svgrepo.com, Generator: SVG Repo Mixer Tools -->
<svg width="800px" height="800px" viewBox="0 0 20 20" xmlns="http://www.w3.org/2000/svg">
  <g id="basketball-jersey" transform="translate(-2 -2)">
    <path id="secondary" fill="#2ca9bc" d="M20,11a3.41,3.41,0,0,1-1-2.41V4L15,3V5A3,3,0,0,1,9,5V3L5,4V8.59A3.41,3.41,0,0,1,4,11a3.41,3.41,0,0,0-1,2.41V20a1,1,0,0,0,1,1H20a1,1,0,0,0,1-1V13.41A3.41,3.41,0,0,0,20,11Z"/>
    <path id="primary" d="M11,13l1-1v5" fill="none" stroke="#000000" stroke-linecap="round" stroke-linejoin="round" stroke-width="2"/>
    <path id="primary-2" data-name="primary" d="M11,17h2M15,5V3H9V5a3,3,0,0,0,3,3h0A3,3,0,0,0,15,5ZM4,21H20a1,1,0,0,0,1-1V13.41A3.41,3.41,0,0,0,20,11h0a3.41,3.41,0,0,1-1-2.41V4L15,3H9L5,4V8.59A3.41,3.41,0,0,1,4,11H4a3.41,3.41,0,0,0-1,2.41V20A1,1,0,0,0,4,21Z" fill="none" stroke="#000000" stroke-linecap="round" stroke-linejoin="round" stroke-width="2"/>
  </g>
</svg>